<svg width="514" height="1220" viewBox="0 0 514 1220" fill="none" xmlns="http://www.w3.org/2000/svg">
<g filter="url(#filter0_d_514_34)">
<path d="M473.505 1195.49C387.649 1142.57 457.121 988.408 388.614 914.907C298.981 818.74 110.895 848.204 44.5531 735.268C-22.7809 620.643 4.45847 469.274 55.2482 347.405C110.181 215.596 203.968 90.5644 336.796 34.0391C468.063 -21.8216 623.455 -1.27792 757.979 48.3569C877.179 92.3379 942.288 210.449 1038.35 292.889C1131.22 372.589 1273.07 410.42 1313.28 524.907C1353.56 639.592 1308.61 771.906 1242.27 873.453C1183.6 963.268 1069.64 992.493 974.392 1043.65C901.616 1082.73 829.457 1113.71 750.155 1137.75C658.248 1165.61 555.408 1245.97 473.505 1195.49Z" fill="#F5F5F5"/>
</g>
<defs>
<filter id="filter0_d_514_34" x="0.496582" y="0.58252" width="1332.04" height="1219.21" filterUnits="userSpaceOnUse" color-interpolation-filters="sRGB">
<feFlood flood-opacity="0" result="BackgroundImageFix"/>
<feColorMatrix in="SourceAlpha" type="matrix" values="0 0 0 0 0 0 0 0 0 0 0 0 0 0 0 0 0 0 127 0" result="hardAlpha"/>
<feOffset dy="4"/>
<feGaussianBlur stdDeviation="2"/>
<feComposite in2="hardAlpha" operator="out"/>
<feColorMatrix type="matrix" values="0 0 0 0 0 0 0 0 0 0 0 0 0 0 0 0 0 0 0.25 0"/>
<feBlend mode="normal" in2="BackgroundImageFix" result="effect1_dropShadow_514_34"/>
<feBlend mode="normal" in="SourceGraphic" in2="effect1_dropShadow_514_34" result="shape"/>
</filter>
</defs>
</svg>
